<svg width="44" height="44" viewBox="0 0 44 44" fill="none" xmlns="http://www.w3.org/2000/svg">
<path d="M20 0C8.972 0 0 8.972 0 20C0 30.476 8.10128 39.0761 18.3633 39.9141C18.5413 38.9241 18.774 37.9854 19.082 37.1094C18.822 36.5134 18.625 35.8936 18.457 35.2656C17.129 34.1056 15.7546 31.594 14.8906 28H18.582C19.02 26.542 19.6881 25.196 20.5781 24H14.2148C14.0808 22.742 14 21.414 14 20C14 18.586 14.0808 17.258 14.2148 16H25.7852C25.9092 17.156 25.9763 18.3781 25.9883 19.6641C27.1963 19.0981 28.5218 18.6765 29.9258 18.3945C29.8958 17.5905 29.8845 16.77 29.8125 16H35.4726C35.6507 16.684 35.7811 17.3876 35.8711 18.1016C37.4211 18.2436 38.8094 18.5203 39.9414 18.8203C39.3274 8.34231 30.63 0 20 0ZM20 4C21.686 4 23.8974 6.962 25.1094 12H14.8906C16.1026 6.962 18.314 4 20 4ZM12.8789 5.69141C11.9849 7.46941 11.2713 9.602 10.7773 12H6.16406C7.73606 9.296 10.0709 7.09541 12.8789 5.69141ZM27.1211 5.69141C29.9271 7.09541 32.2639 9.296 33.8359 12H29.2266C28.7326 9.602 28.0151 7.46941 27.1211 5.69141ZM4.52734 16H10.1875C10.0675 17.286 10 18.622 10 20C10 21.378 10.0675 22.714 10.1875 24H4.52734C4.19534 22.718 4 21.384 4 20C4 18.616 4.19534 17.282 4.52734 16ZM33.8594 22C31.0377 22 28.194 22.728 25.918 24.3555C23.6419 25.9829 22 28.6649 22 31.9297C22 33.5134 22.4263 35.2855 23.5195 36.8398C22.0233 39.4583 22 42.4172 22 44H26C26 42.7888 26.179 40.8719 26.7617 39.3867C27.7206 39.7696 28.8051 40 30 40C32.21 40 34.0601 39.3213 35.3437 38.1602C36.6274 36.999 37.3067 35.5448 37.8594 34.1523C38.9648 31.3675 39.6457 28.7092 41.8086 26.832L44.1719 24.7812L41.3164 23.4961C41.3164 23.4961 38.0323 22 33.8594 22ZM33.8594 26C35.6547 26 36.0385 26.3252 37.1055 26.6406C35.7176 28.8107 34.7995 31.0258 34.1445 32.6758C33.6712 33.8681 33.1963 34.7103 32.6601 35.1953C32.124 35.6803 31.489 36 30 36C28.2661 36 27.4735 35.4564 26.8867 34.7148C26.2999 33.9733 26 32.8699 26 31.9297C26 29.9085 26.8251 28.6254 28.2461 27.6094C29.6671 26.5933 31.7531 26 33.8594 26ZM6.16406 28H10.7734C11.2674 30.398 11.9849 32.5306 12.8789 34.3086C10.0729 32.9046 7.73606 30.704 6.16406 28Z" fill="#00AAFF"/>
</svg>
