<svg width="20" height="44" viewBox="0 0 20 44" fill="none" xmlns="http://www.w3.org/2000/svg">
<path d="M8 0V4.41016C7.02075 4.73883 6.13148 5.21586 5.50391 5.92188C4.47069 7.08424 4 8.55556 4 10C4 10.8703 4.54407 11.6405 4.90625 12.457C2.20278 13.0358 0 15.1351 0 18C0 21.2899 2.71006 24 6 24H14C15.1301 24 16 24.8699 16 26C16 27.1301 15.1301 28 14 28H10C8.16667 28 6.53712 28.7595 5.50391 29.9219C4.47069 31.0842 4 32.5556 4 34C4 35.4444 4.47069 36.9158 5.50391 38.0781C6.13148 38.7841 7.02075 39.2612 8 39.5898V44H12V39.5898C12.9792 39.2612 13.8685 38.7841 14.4961 38.0781C15.5293 36.9158 16 35.4444 16 34C16 33.1297 15.4559 32.3595 15.0938 31.543C17.7972 30.9642 20 28.8649 20 26C20 22.7101 17.2899 20 14 20H6C4.86994 20 4 19.1301 4 18C4 16.8699 4.86994 16 6 16H10C11.8333 16 13.4629 15.2405 14.4961 14.0781C15.5293 12.9158 16 11.4444 16 10C16 8.55556 15.5293 7.08424 14.4961 5.92188C13.8685 5.21586 12.9792 4.73883 12 4.41016V0H8ZM10 8C10.8333 8 11.2038 8.24049 11.5039 8.57812C11.804 8.91576 12 9.44444 12 10C12 10.5556 11.804 11.0842 11.5039 11.4219C11.2038 11.7595 10.8333 12 10 12C9.16667 12 8.79621 11.7595 8.49609 11.4219C8.19597 11.0842 8 10.5556 8 10C8 9.44444 8.19597 8.91576 8.49609 8.57812C8.79621 8.24049 9.16667 8 10 8ZM10 32C10.8333 32 11.2038 32.2405 11.5039 32.5781C11.804 32.9158 12 33.4444 12 34C12 34.5556 11.804 35.0842 11.5039 35.4219C11.2038 35.7595 10.8333 36 10 36C9.16667 36 8.79621 35.7595 8.49609 35.4219C8.19597 35.0842 8 34.5556 8 34C8 33.4444 8.19597 32.9158 8.49609 32.5781C8.79621 32.2405 9.16667 32 10 32Z" fill="#00AAFF"/>
</svg>
