<svg width="72" height="62" viewBox="0 0 72 62" fill="none" xmlns="http://www.w3.org/2000/svg">
<g clip-path="url(#clip0_2779_94)">
<path d="M72 49.5786H0V0.0244141H72V49.5786ZM2.65389 46.9322H69.3461V2.67083H2.65389V46.9322Z" fill="white"/>
<path d="M55.5588 61.0244H52.9049V59.4101H19.0943V61.0244H16.4404V56.7637H55.5588V61.0244Z" fill="white"/>
<path d="M44.1213 59.41H27.8662V52.1323H30.5201V56.7636H41.4674V52.1323H44.1213V59.41Z" fill="white"/>
<path d="M66.4006 5.75391H62.6719V8.40033H66.4006V5.75391Z" fill="white"/>
<path d="M60.3225 5.75391H56.5938V8.40033H60.3225V5.75391Z" fill="white"/>
<path d="M54.2326 5.75391H50.5039V8.40033H54.2326V5.75391Z" fill="white"/>
<path d="M30.1079 40.3292H22.8628V36.0023C21.496 35.5392 20.2354 34.8114 19.1473 33.8587L15.3921 36.0288L11.7695 29.77L15.5248 27.6132C15.3788 26.8986 15.3125 26.1841 15.3125 25.4696C15.3125 24.755 15.3788 24.0405 15.5248 23.326L11.7695 21.1691L15.3921 14.9103L19.1473 17.0804C20.2354 16.1277 21.496 15.4132 22.8628 14.9368V10.5967H30.1079V14.9236C31.4747 15.3867 32.7353 16.1145 33.8233 17.0672L37.5919 14.8971L41.2144 21.1559L37.4592 23.3127C37.6051 24.0273 37.6715 24.7418 37.6715 25.4563C37.6715 26.1709 37.6051 26.8854 37.4592 27.5999L41.2144 29.7568L37.5919 36.0156L33.8233 33.8455C32.7353 34.7982 31.4747 35.5127 30.1079 35.9891V40.3292ZM25.5034 37.6828H27.4407V33.9646L28.4625 33.7264C30.0681 33.3427 31.5145 32.509 32.6556 31.3182L33.3722 30.5639L36.6099 32.4297L37.5786 30.7492L34.3541 28.8967L34.6461 27.891C34.8849 27.0971 35.0043 26.2767 35.0043 25.4696C35.0043 24.6624 34.8849 23.842 34.6593 23.0481L34.3674 22.0425L37.5919 20.19L36.6232 18.5095L33.3855 20.3752L32.6689 19.621C31.5277 18.4301 30.0814 17.5965 28.4758 17.2127L27.454 16.9746V13.2431H25.5167V16.9613L24.4949 17.1995C22.8893 17.5832 21.443 18.4169 20.3018 19.6077L19.5852 20.362L16.3608 18.4962L15.3921 20.1767L18.6166 22.0292L18.3114 23.0481C18.0725 23.842 17.9531 24.6492 17.9531 25.4696C17.9531 26.2767 18.0725 27.0971 18.3114 27.891L18.6033 28.8967L15.3788 30.7492L16.3475 32.4297L19.572 30.5639L20.2885 31.3182C21.4297 32.509 22.8761 33.3427 24.4817 33.7264L25.5034 33.9646V37.6828Z" fill="white"/>
<path d="M26.4858 30.6567C23.6196 30.6567 21.2842 28.3278 21.2842 25.4697C21.2842 22.6116 23.6196 20.2827 26.4858 20.2827C29.352 20.2827 31.6874 22.6116 31.6874 25.4697C31.6874 28.3278 29.352 30.6567 26.4858 30.6567ZM26.4858 22.9159C25.0792 22.9159 23.9381 24.0539 23.9381 25.4565C23.9381 26.8591 25.0792 27.997 26.4858 27.997C27.8924 27.997 29.0335 26.8591 29.0335 25.4565C29.0335 24.0671 27.8924 22.9159 26.4858 22.9159Z" fill="white"/>
<path d="M45.8192 38.8873C43.4174 38.8873 41.4668 36.9422 41.4668 34.5472C41.4668 32.1522 43.4174 30.207 45.8192 30.207C48.2209 30.207 50.1716 32.1522 50.1716 34.5472C50.1716 36.9422 48.2209 38.8873 45.8192 38.8873ZM45.8192 32.8667C44.8903 32.8667 44.1207 33.6209 44.1207 34.5604C44.1207 35.4999 44.877 36.2541 45.8192 36.2541C46.748 36.2541 47.5177 35.4999 47.5177 34.5604C47.5177 33.6209 46.748 32.8667 45.8192 32.8667Z" fill="white"/>
<path d="M51.3784 27.3488C48.4193 27.3488 46.0176 24.9538 46.0176 22.003C46.0176 19.0522 48.4193 16.6572 51.3784 16.6572C54.3375 16.6572 56.7393 19.0522 56.7393 22.003C56.7393 24.9538 54.3375 27.3488 51.3784 27.3488ZM51.3784 19.3036C49.8923 19.3036 48.6715 20.521 48.6715 22.003C48.6715 23.485 49.8923 24.7023 51.3784 24.7023C52.8779 24.7023 54.0854 23.485 54.0854 22.003C54.0854 20.521 52.8646 19.3036 51.3784 19.3036Z" fill="white"/>
<path d="M52.7056 14.9502H50.0518V17.9803H52.7056V14.9502Z" fill="white"/>
<path d="M47.3153 16.0806L45.4385 17.9517L47.5868 20.0946L49.4637 18.2236L47.3153 16.0806Z" fill="white"/>
<path d="M47.3317 20.6797H44.293V23.3261H47.3317V20.6797Z" fill="white"/>
<path d="M47.5764 23.9169L45.4277 26.0596L47.3043 27.9309L49.453 25.7882L47.5764 23.9169Z" fill="white"/>
<path d="M52.7056 26.0254H50.0518V29.0555H52.7056V26.0254Z" fill="white"/>
<path d="M55.17 23.9192L53.2939 25.791L55.4432 27.933L57.3193 26.0612L55.17 23.9192Z" fill="white"/>
<path d="M58.4518 20.6797H55.4131V23.3261H58.4518V20.6797Z" fill="white"/>
<path d="M55.4348 16.0835L53.2861 18.2261L55.1627 20.0974L57.3114 17.9547L55.4348 16.0835Z" fill="white"/>
</g>
<defs>
<clipPath id="clip0_2779_94">
<rect width="72" height="61" fill="white" transform="translate(0 0.0244141)"/>
</clipPath>
</defs>
</svg>
