<svg width="50" height="50" viewBox="0 0 50 50" fill="none" xmlns="http://www.w3.org/2000/svg">
<g clip-path="url(#clip0_1326_13)">
<path d="M37.4783 21.1352C35.8281 15.8169 30.8573 11.9393 25.0026 11.9393C19.296 11.9393 14.4375 15.6177 12.6648 20.7265C9.97752 19.9295 8.01063 17.4415 8.01063 14.4988C8.01063 10.9175 10.9227 8.00552 14.5039 8.00552H42.2091C42.8323 8.00552 43.3381 7.49974 43.3381 6.87647V5.13436H48.871C49.4942 5.13436 50 4.62859 50 4.00531C50 3.38204 49.4942 2.87626 48.871 2.87626H43.3381V1.12905C43.3381 0.505773 42.8323 0 42.2091 0H14.5039C6.50352 0 0 6.50352 0 14.5039C0 21.83 5.46133 27.8993 12.5217 28.8648C14.1719 34.1831 19.1427 38.0607 24.9974 38.0607C30.704 38.0607 35.5625 34.3823 37.3352 29.2735C40.0225 30.0705 41.9894 32.5585 41.9894 35.5012C41.9894 39.0825 39.0774 41.9945 35.4961 41.9945H7.79606C7.17278 41.9945 6.66701 42.5003 6.66701 43.1235V44.8656H1.13416C0.505773 44.8656 0 45.3714 0 45.9998C0 46.6231 0.505773 47.1288 1.12905 47.1288H6.6619V48.871C6.6619 49.4942 7.16767 50 7.79095 50H35.4961C43.4914 50 50 43.4965 50 35.4961C50 28.1751 44.5387 22.1007 37.4783 21.1352ZM2.26321 14.5039C2.26321 7.75519 7.75519 2.26321 14.5039 2.26321H41.0749V5.74742H14.5039C9.6761 5.74742 5.74742 9.6761 5.74742 14.5039C5.74742 18.499 8.43977 21.8811 12.1079 22.9233C12.0006 23.6027 11.9393 24.2924 11.9393 25.0026C11.9393 25.5083 11.97 26.0039 12.0262 26.4892C6.46266 25.3397 2.26321 20.4046 2.26321 14.5039ZM25.0026 35.7975C19.0457 35.7975 14.2025 30.9543 14.2025 24.9974C14.2025 19.0406 19.0457 14.2025 25.0026 14.2025C30.9594 14.2025 35.8026 19.0457 35.8026 25.0026C35.8026 30.9594 30.9543 35.7975 25.0026 35.7975ZM35.5012 47.7419H8.9251V44.2577H35.4961C40.3239 44.2577 44.2526 40.329 44.2526 35.5012C44.2526 31.5061 41.5602 28.124 37.8921 27.0818C37.9994 26.4024 38.0607 25.7127 38.0607 25.0026C38.0607 24.4968 38.03 24.0012 37.9738 23.5159C43.5425 24.6654 47.7419 29.6005 47.7419 35.5012C47.7419 42.2499 42.2499 47.7419 35.5012 47.7419Z" fill="white"/>
<path d="M27.5107 23.8684H24.2359L26.0291 19.8988C26.2846 19.3318 26.0342 18.6574 25.462 18.4019C24.895 18.1465 24.2257 18.3968 23.9652 18.969L21.4567 24.5376C21.2984 24.885 21.329 25.2937 21.5385 25.6156C21.7479 25.9375 22.1055 26.1316 22.4887 26.1316H25.7635L23.9703 30.1011C23.7148 30.6682 23.9652 31.3375 24.5373 31.598C24.6906 31.6644 24.8439 31.7002 25.0022 31.7002C25.4314 31.7002 25.8452 31.455 26.0342 31.0361L28.5478 25.4674C28.7061 25.12 28.6755 24.7113 28.466 24.3895C28.2566 24.0625 27.8989 23.8684 27.5107 23.8684Z" fill="white"/>
</g>
<defs>
<clipPath id="clip0_1326_13">
<rect width="50" height="50" fill="white"/>
</clipPath>
</defs>
</svg>
