<svg width="56" height="56" viewBox="0 0 56 56" fill="none" xmlns="http://www.w3.org/2000/svg">
<g clip-path="url(#clip0_1326_29)">
<path d="M31.8769 30.446C31.6423 30.0856 31.2418 29.8681 30.8127 29.8681H27.1449L29.1533 25.4222C29.4394 24.7871 29.159 24.0375 28.5182 23.7457C27.8831 23.4596 27.1335 23.74 26.8417 24.3809L24.0322 30.612C23.8549 31.0011 23.8892 31.4588 24.1238 31.8193C24.3584 32.1798 24.7589 32.3972 25.1881 32.3972H28.8558L26.8474 36.8431C26.5613 37.4782 26.8417 38.2335 27.4825 38.5196C27.6542 38.594 27.8258 38.634 28.0032 38.634C28.4839 38.634 28.9473 38.3594 29.159 37.8902L31.9742 31.6534C32.1459 31.2643 32.1115 30.8065 31.8769 30.446Z" fill="white"/>
<path d="M54.7355 12.2677H50.5013V10.1849C50.5013 9.48687 49.9348 8.9204 49.2367 8.9204C48.5387 8.9204 47.9722 9.48687 47.9722 10.1849V12.2677H36.0535L33.1525 0.949831C33.0095 0.389088 32.506 0 31.9281 0H24.0777C23.4997 0 22.9962 0.389088 22.8532 0.949831L19.9522 12.2677H8.03351V10.1849C8.03351 9.48687 7.46705 8.9204 6.76898 8.9204C6.07091 8.9204 5.50444 9.48687 5.50444 10.1849V12.2677H1.27026C0.566466 12.2677 0 12.8342 0 13.5322V18.7391C0 19.2083 0.263206 19.6432 0.680903 19.8606L15.9583 27.8541L11.2607 46.187H6.5115C5.81343 46.187 5.24696 46.7534 5.24696 47.4515V54.7355C5.24696 55.4335 5.81343 56 6.5115 56H49.4885C50.1866 56 50.753 55.4335 50.753 54.7355V47.4515C50.753 46.7534 50.1866 46.187 49.4885 46.187H44.7393L40.0417 27.8541L55.3191 19.8606C55.7368 19.6432 56 19.2083 56 18.7391V13.5322C56 12.8342 55.4335 12.2677 54.7355 12.2677ZM25.0561 2.53479H30.9382L33.4329 12.2677H22.5614L25.0561 2.53479ZM2.53479 17.9724V14.7968H19.2999L16.5992 25.3307L2.53479 17.9724ZM48.224 53.4709H7.78175V48.7218H48.224V53.4709ZM13.8755 46.187L21.9148 14.8025H34.0852L42.1245 46.187H13.8755ZM53.4709 17.9724L39.4008 25.3365L36.7001 14.8025H53.4652V17.9724H53.4709Z" fill="white"/>
</g>
<defs>
<clipPath id="clip0_1326_29">
<rect width="56" height="56" fill="white"/>
</clipPath>
</defs>
</svg>
